{
  "accessors": [
    {
      "bufferView": 2,
      "componentType": 5126,
      "count": 65532,
      "max": [
        0.5,
        -0.0,
        0.5
      ],
      "min": [
        -0.5,
        -0.08499199897050858,
        -0.0016339999856427312
      ],
      "type": "VEC3"
    },
    {
      "bufferView": 2,
      "byteOffset": 786384,
      "componentType": 5126,
      "count": 65532,
      "max": [
        0.9771633148193359,
        -0.16561631858348846,
        0.9726175665855408
      ],
      "min": [
        -0.9523648619651794,
        -1.0,
        -0.9850454330444336
      ],
      "type": "VEC3"
    },
    {
      "bufferView": 3,
      "componentType": 5126,
      "count": 65532,
      "max": [
        1.0,
        0.9826061129570007,
        0.00015594740398228168,
        1.0
      ],
      "min": [
        0.18570205569267273,
        -0.9799278378486633,
        -9.188152034766972e-05,
        1.0
      ],
      "type": "VEC4"
    },
    {
      "bufferView": 1,
      "componentType": 5126,
      "count": 65532,
      "max": [
        1.0,
        1.0
      ],
      "min": [
        0.0,
        0.49836599826812744
      ],
      "type": "VEC2"
    },
    {
      "bufferView": 0,
      "componentType": 5125,
      "count": 318693,
      "type": "SCALAR"
    },
    {
      "bufferView": 2,
      "byteOffset": 1572768,
      "componentType": 5126,
      "count": 65532,
      "max": [
        0.5,
        -0.0,
        0.42483699321746826
      ],
      "min": [
        -0.5,
        -0.07852999866008759,
        -0.2581700086593628
      ],
      "type": "VEC3"
    },
    {
      "bufferView": 2,
      "byteOffset": 2359152,
      "componentType": 5126,
      "count": 65532,
      "max": [
        0.9586326479911804,
        -0.14088064432144165,
        0.9787964224815369
      ],
      "min": [
        -0.9688737988471985,
        -1.0,
        -0.9624720811843872
      ],
      "type": "VEC3"
    },
    {
      "bufferView": 3,
      "byteOffset": 1048512,
      "componentType": 5126,
      "count": 65532,
      "max": [
        1.0,
        0.9696937203407288,
        9.813957149162889e-05,
        1.0
      ],
      "min": [
        0.2307235151529312,
        -0.9730194211006165,
        -8.977328252512962e-05,
        1.0
      ],
      "type": "VEC4"
    },
    {
      "bufferView": 1,
      "byteOffset": 524256,
      "componentType": 5126,
      "count": 65532,
      "max": [
        1.0,
        0.9248369932174683
      ],
      "min": [
        0.0,
        0.2418300062417984
      ],
      "type": "VEC2"
    },
    {
      "bufferView": 0,
      "byteOffset": 1274772,
      "componentType": 5125,
      "count": 296826,
      "type": "SCALAR"
    },
    {
      "bufferView": 2,
      "byteOffset": 3145536,
      "componentType": 5126,
      "count": 65532,
      "max": [
        0.5,
        -0.0,
        0.28758201003074646
      ],
      "min": [
        -0.5,
        -0.12303300201892853,
        -0.4395419955253601
      ],
      "type": "VEC3"
    },
    {
      "bufferView": 2,
      "byteOffset": 3931920,
      "componentType": 5126,
      "count": 65532,
      "max": [
        0.9699962735176086,
        -0.16244739294052124,
        0.9745380878448486
      ],
      "min": [
        -0.9653446078300476,
        -1.0,
        -0.9816151261329651
      ],
      "type": "VEC3"
    },
    {
      "bufferView": 3,
      "byteOffset": 2097024,
      "componentType": 5126,
      "count": 65532,
      "max": [
        1.0,
        0.9757179617881775,
        0.0001185953660751693,
        1.0
      ],
      "min": [
        0.20376014709472656,
        -0.9790208339691162,
        -0.00017725038924254477,
        1.0
      ],
      "type": "VEC4"
    },
    {
      "bufferView": 1,
      "byteOffset": 1048512,
      "componentType": 5126,
      "count": 65532,
      "max": [
        1.0,
        0.7875819802284241
      ],
      "min": [
        0.0,
        0.060458000749349594
      ],
      "type": "VEC2"
    },
    {
      "bufferView": 0,
      "byteOffset": 2462076,
      "componentType": 5125,
      "count": 290112,
      "type": "SCALAR"
    },
    {
      "bufferView": 2,
      "byteOffset": 4718304,
      "componentType": 5126,
      "count": 65532,
      "max": [
        0.5,
        -0.0,
        0.031045999377965927
      ],
      "min": [
        -0.5,
        -0.0578869991004467,
        -0.5
      ],
      "type": "VEC3"
    },
    {
      "bufferView": 2,
      "byteOffset": 5504688,
      "componentType": 5126,
      "count": 65532,
      "max": [
        0.9758596420288086,
        -0.16827797889709473,
        0.9707321524620056
      ],
      "min": [
        -0.9720861911773682,
        -1.0,
        -0.954602062702179
      ],
      "type": "VEC3"
    },
    {
      "bufferView": 3,
      "byteOffset": 3145536,
      "componentType": 5126,
      "count": 65532,
      "max": [
        1.0,
        0.9776647686958313,
        0.0001871981512522325,
        1.0
      ],
      "min": [
        0.1927167922258377,
        -0.9812544584274292,
        -0.00012986936781089753,
        1.0
      ],
      "type": "VEC4"
    },
    {
      "bufferView": 1,
      "byteOffset": 1572768,
      "componentType": 5126,
      "count": 65532,
      "max": [
        1.0,
        0.5310459733009338
      ],
      "min": [
        0.0,
        0.0
      ],
      "type": "VEC2"
    },
    {
      "bufferView": 0,
      "byteOffset": 3622524,
      "componentType": 5125,
      "count": 307218,
      "type": "SCALAR"
    },
    {
      "bufferView": 2,
      "byteOffset": 6291072,
      "componentType": 5126,
      "count": 65532,
      "max": [
        0.5,
        -0.0,
        -0.22058799862861633
      ],
      "min": [
        -0.5,
        -0.06372900307178497,
        -0.5
      ],
      "type": "VEC3"
    },
    {
      "bufferView": 2,
      "byteOffset": 7077456,
      "componentType": 5126,
      "count": 65532,
      "max": [
        0.9758596420288086,
        -0.16827797889709473,
        0.9345610737800598
      ],
      "min": [
        -0.9813947081565857,
        -1.0,
        -0.9664239883422852
      ],
      "type": "VEC3"
    },
    {
      "bufferView": 3,
      "byteOffset": 4194048,
      "componentType": 5126,
      "count": 65532,
      "max": [
        1.0,
        0.9770680069923401,
        0.0001495008182246238,
        1.0
      ],
      "min": [
        0.19145338237285614,
        -0.9815017580986023,
        -0.00013780436711385846,
        1.0
      ],
      "type": "VEC4"
    },
    {
      "bufferView": 1,
      "byteOffset": 2097024,
      "componentType": 5126,
      "count": 65532,
      "max": [
        1.0,
        0.27941200137138367
      ],
      "min": [
        0.0,
        0.0
      ],
      "type": "VEC2"
    },
    {
      "bufferView": 0,
      "byteOffset": 4851396,
      "componentType": 5125,
      "count": 302883,
      "type": "SCALAR"
    },
    {
      "bufferView": 2,
      "byteOffset": 7863840,
      "componentType": 5126,
      "count": 65532,
      "max": [
        0.5,
        -0.0,
        0.02777799963951111
      ],
      "min": [
        -0.5,
        -0.08381800353527069,
        -0.5
      ],
      "type": "VEC3"
    },
    {
      "bufferView": 2,
      "byteOffset": 8650224,
      "componentType": 5126,
      "count": 65532,
      "max": [
        0.9525107145309448,
        -0.18108008801937103,
        0.9683802723884583
      ],
      "min": [
        -0.9653446078300476,
        -1.0,
        -0.9313416481018066
      ],
      "type": "VEC3"
    },
    {
      "bufferView": 3,
      "byteOffset": 5242560,
      "componentType": 5126,
      "count": 65532,
      "max": [
        1.0,
        0.971030592918396,
        0.00010363485489506274,
        1.0
      ],
      "min": [
        0.22545231878757477,
        -0.9742542505264282,
        -0.00010121651575900614,
        1.0
      ],
      "type": "VEC4"
    },
    {
      "bufferView": 1,
      "byteOffset": 2621280,
      "componentType": 5126,
      "count": 65532,
      "max": [
        1.0,
        0.5277780294418335
      ],
      "min": [
        0.0,
        0.0
      ],
      "type": "VEC2"
    },
    {
      "bufferView": 0,
      "byteOffset": 6062928,
      "componentType": 5125,
      "count": 285126,
      "type": "SCALAR"
    },
    {
      "bufferView": 2,
      "byteOffset": 9436608,
      "componentType": 5126,
      "count": 65532,
      "max": [
        0.5,
        -0.0,
        0.17973899841308594
      ],
      "min": [
        -0.5,
        -0.08587399870157242,
        -0.10457500070333481
      ],
      "type": "VEC3"
    },
    {
      "bufferView": 2,
      "byteOffset": 10222992,
      "componentType": 5126,
      "count": 65532,
      "max": [
        0.9785099625587463,
        -0.19439606368541718,
        0.9614436626434326
      ],
      "min": [
        -0.9648543000221252,
        -1.0,
        -0.9229135513305664
      ],
      "type": "VEC3"
    },
    {
      "bufferView": 3,
      "byteOffset": 6291072,
      "componentType": 5126,
      "count": 65532,
      "max": [
        1.0,
        0.9796584248542786,
        0.0001743454486131668,
        1.0
      ],
      "min": [
        0.20067231357097626,
        -0.970281720161438,
        -0.00014804302190896124,
        1.0
      ],
      "type": "VEC4"
    },
    {
      "bufferView": 1,
      "byteOffset": 3145536,
      "componentType": 5126,
      "count": 65532,
      "max": [
        1.0,
        0.6797389984130859
      ],
      "min": [
        0.0,
        0.3954249918460846
      ],
      "type": "VEC2"
    },
    {
      "bufferView": 0,
      "byteOffset": 7203432,
      "componentType": 5125,
      "count": 328284,
      "type": "SCALAR"
    },
    {
      "bufferView": 2,
      "byteOffset": 11009376,
      "componentType": 5126,
      "count": 28189,
      "max": [
        0.5,
        -0.0,
        0.19444400072097778
      ],
      "min": [
        -0.49836599826812744,
        -0.12303300201892853,
        0.07516299933195114
      ],
      "type": "VEC3"
    },
    {
      "bufferView": 2,
      "byteOffset": 11347644,
      "componentType": 5126,
      "count": 28189,
      "max": [
        0.9539602994918823,
        -0.17612586915493011,
        0.9631916284561157
      ],
      "min": [
        -0.9574035406112671,
        -1.0,
        -0.965763509273529
      ],
      "type": "VEC3"
    },
    {
      "bufferView": 3,
      "byteOffset": 7339584,
      "componentType": 5126,
      "count": 28189,
      "max": [
        1.0,
        0.9750152230262756,
        0.00011348289262969047,
        1.0
      ],
      "min": [
        0.20376013219356537,
        -0.9790208339691162,
        -0.00010041629866464064,
        1.0
      ],
      "type": "VEC4"
    },
    {
      "bufferView": 1,
      "byteOffset": 3669792,
      "componentType": 5126,
      "count": 28189,
      "max": [
        1.0,
        0.6944440007209778
      ],
      "min": [
        0.0016339999856427312,
        0.5751630067825317
      ],
      "type": "VEC2"
    },
    {
      "bufferView": 0,
      "byteOffset": 8516568,
      "componentType": 5125,
      "count": 118122,
      "type": "SCALAR"
    }
  ],
  "asset": {
    "extras": {
      "author": "artfromheath (https://sketchfab.com/artfromheath)",
      "license": "CC-BY-4.0 (http://creativecommons.org/licenses/by/4.0/)",
      "source": "https://sketchfab.com/3d-models/death-valley-terrain-9f57bca156e14cff9e4e316a9ccc3e0d",
      "title": "Death Valley - Terrain"
    },
    "generator": "Sketchfab-12.66.0",
    "version": "2.0"
  },
  "bufferViews": [
    {
      "buffer": 0,
      "byteLength": 8989056,
      "name": "floatBufferViews",
      "target": 34963
    },
    {
      "buffer": 0,
      "byteLength": 3895304,
      "byteOffset": 8989056,
      "byteStride": 8,
      "name": "floatBufferViews",
      "target": 34962
    },
    {
      "buffer": 0,
      "byteLength": 11685912,
      "byteOffset": 12884360,
      "byteStride": 12,
      "name": "floatBufferViews",
      "target": 34962
    },
    {
      "buffer": 0,
      "byteLength": 7790608,
      "byteOffset": 24570272,
      "byteStride": 16,
      "name": "floatBufferViews",
      "target": 34962
    }
  ],
  "buffers": [
    {
      "byteLength": 32360880,
      "uri": "scene.bin"
    }
  ],
  "images": [
    {
      "uri": "textures/material_0_baseColor.jpeg"
    },
    {
      "uri": "textures/material_0_metallicRoughness.png"
    },
    {
      "uri": "textures/material_0_normal.jpeg"
    }
  ],
  "materials": [
    {
      "doubleSided": true,
      "name": "material_0",
      "normalTexture": {
        "index": 2
      },
      "pbrMetallicRoughness": {
        "baseColorTexture": {
          "index": 0
        },
        "metallicFactor": 0.0,
        "metallicRoughnessTexture": {
          "index": 1
        }
      }
    }
  ],
  "meshes": [
    {
      "name": "Object_0",
      "primitives": [
        {
          "attributes": {
            "NORMAL": 1,
            "POSITION": 0,
            "TANGENT": 2,
            "TEXCOORD_0": 3
          },
          "indices": 4,
          "material": 0,
          "mode": 4
        }
      ]
    },
    {
      "name": "Object_1",
      "primitives": [
        {
          "attributes": {
            "NORMAL": 6,
            "POSITION": 5,
            "TANGENT": 7,
            "TEXCOORD_0": 8
          },
          "indices": 9,
          "material": 0,
          "mode": 4
        }
      ]
    },
    {
      "name": "Object_2",
      "primitives": [
        {
          "attributes": {
            "NORMAL": 11,
            "POSITION": 10,
            "TANGENT": 12,
            "TEXCOORD_0": 13
          },
          "indices": 14,
          "material": 0,
          "mode": 4
        }
      ]
    },
    {
      "name": "Object_3",
      "primitives": [
        {
          "attributes": {
            "NORMAL": 16,
            "POSITION": 15,
            "TANGENT": 17,
            "TEXCOORD_0": 18
          },
          "indices": 19,
          "material": 0,
          "mode": 4
        }
      ]
    },
    {
      "name": "Object_4",
      "primitives": [
        {
          "attributes": {
            "NORMAL": 21,
            "POSITION": 20,
            "TANGENT": 22,
            "TEXCOORD_0": 23
          },
          "indices": 24,
          "material": 0,
          "mode": 4
        }
      ]
    },
    {
      "name": "Object_5",
      "primitives": [
        {
          "attributes": {
            "NORMAL": 26,
            "POSITION": 25,
            "TANGENT": 27,
            "TEXCOORD_0": 28
          },
          "indices": 29,
          "material": 0,
          "mode": 4
        }
      ]
    },
    {
      "name": "Object_6",
      "primitives": [
        {
          "attributes": {
            "NORMAL": 31,
            "POSITION": 30,
            "TANGENT": 32,
            "TEXCOORD_0": 33
          },
          "indices": 34,
          "material": 0,
          "mode": 4
        }
      ]
    },
    {
      "name": "Object_7",
      "primitives": [
        {
          "attributes": {
            "NORMAL": 36,
            "POSITION": 35,
            "TANGENT": 37,
            "TEXCOORD_0": 38
          },
          "indices": 39,
          "material": 0,
          "mode": 4
        }
      ]
    }
  ],
  "nodes": [
    {
      "children": [
        1
      ],
      "matrix": [
        1.0,
        0.0,
        0.0,
        0.0,
        0.0,
        -1.0,
        -4.440892098500626e-16,
        0.0,
        0.0,
        4.440892098500626e-16,
        -1.0,
        0.0,
        0.0,
        -0.06151671335101129,
        0.061516415327787385,
        1.0
      ],
      "name": "Sketchfab_model"
    },
    {
      "children": [
        2,
        3,
        4,
        5,
        6,
        7,
        8,
        9
      ],
      "name": "DeathValley Mesh Output.obj.cleaner.materialmerger.gles"
    },
    {
      "mesh": 0,
      "name": "Object_2"
    },
    {
      "mesh": 1,
      "name": "Object_3"
    },
    {
      "mesh": 2,
      "name": "Object_4"
    },
    {
      "mesh": 3,
      "name": "Object_5"
    },
    {
      "mesh": 4,
      "name": "Object_6"
    },
    {
      "mesh": 5,
      "name": "Object_7"
    },
    {
      "mesh": 6,
      "name": "Object_8"
    },
    {
      "mesh": 7,
      "name": "Object_9"
    }
  ],
  "samplers": [
    {
      "magFilter": 9729,
      "minFilter": 9987,
      "wrapS": 10497,
      "wrapT": 10497
    }
  ],
  "scene": 0,
  "scenes": [
    {
      "name": "Sketchfab_Scene",
      "nodes": [
        0
      ]
    }
  ],
  "textures": [
    {
      "sampler": 0,
      "source": 0
    },
    {
      "sampler": 0,
      "source": 1
    },
    {
      "sampler": 0,
      "source": 2
    }
  ]
}
